<?xml version="1.0" encoding="UTF-8" standalone="no"?>
<!-- Created with Inkscape (http://www.inkscape.org/) -->

<svg
   width="1024"
   height="1024"
   viewBox="0 0 270.93333 270.93333"
   version="1.1"
   id="svg1"
   inkscape:version="1.4.2 (ebf0e940, 2025-05-08)"
   sodipodi:docname="1_default_shape.svg"
   xml:space="preserve"
   xmlns:inkscape="http://www.inkscape.org/namespaces/inkscape"
   xmlns:sodipodi="http://sodipodi.sourceforge.net/DTD/sodipodi-0.dtd"
   xmlns="http://www.w3.org/2000/svg"
   xmlns:svg="http://www.w3.org/2000/svg"><sodipodi:namedview
     id="namedview1"
     pagecolor="#ffffff"
     bordercolor="#000000"
     borderopacity="0.25"
     inkscape:showpageshadow="2"
     inkscape:pageopacity="0.0"
     inkscape:pagecheckerboard="0"
     inkscape:deskcolor="#d1d1d1"
     inkscape:document-units="px"
     inkscape:zoom="0.44079013"
     inkscape:cx="392.47703"
     inkscape:cy="209.85044"
     inkscape:window-width="1456"
     inkscape:window-height="796"
     inkscape:window-x="0"
     inkscape:window-y="38"
     inkscape:window-maximized="0"
     inkscape:current-layer="layer2"
     showgrid="true"
     showguides="true"><inkscape:grid
       id="grid1"
       units="px"
       originx="135.46667"
       originy="135.46667"
       spacingx="0.26458333"
       spacingy="0.26458333"
       empcolor="#0099e5"
       empopacity="0.30196078"
       color="#0099e5"
       opacity="0.14901961"
       empspacing="50"
       enabled="true"
       visible="true" /></sodipodi:namedview><defs
     id="defs1" /><g
     inkscape:groupmode="layer"
     id="layer2"
     inkscape:label="1_ logoShape"><g
       id="g1"
       inkscape:label="leverShape"
       transform="translate(2.1166667)"
       style="stroke:none;stroke-opacity:1;fill:#ffffff;fill-opacity:1"><path
         id="path1"
         style="fill:#ffffff;stroke:none;stroke-width:0.326591;stroke-opacity:1;fill-opacity:1"
         inkscape:label="mainCircle"
         d="m 64.127351,79.563101 a 32.658264,32.658264 0 0 0 -32.657954,32.658469 32.658264,32.658264 0 0 0 32.657954,32.65796 32.658264,32.658264 0 0 0 32.658471,-32.65796 32.658264,32.658264 0 0 0 -0.662491,-6.54378 l -11.819434,7.24762 c -5.662829,3.47248 -13.016951,1.70906 -16.489433,-3.95377 -3.472481,-5.66283 -1.709065,-13.017466 3.953764,-16.489948 l 11.25151,-6.89932 A 32.658264,32.658264 0 0 0 64.127351,79.563101 Z" /><rect
         style="display:inline;fill:#ffffff;stroke:none;stroke-width:0.264583;stroke-opacity:1;fill-opacity:1"
         id="rect1"
         width="46.019474"
         height="14.692832"
         x="5.7949228"
         y="120.45396"
         transform="rotate(-31.516883)"
         ry="7.346416"
         inkscape:label="leverInline" /></g><g
       id="g2"
       inkscape:label="middle"
       style="display:inline;stroke:none;stroke-opacity:1;fill:#ffffff;fill-opacity:1"><path
         id="path2-3"
         style="display:inline;fill:#ffffff;stroke:none;stroke-width:0.23642;stroke-opacity:1;fill-opacity:1"
         inkscape:label="middleInline"
         d="m 179.23972,97.563555 a 23.641373,23.641373 0 0 0 -23.64145,23.641445 23.641373,23.641373 0 0 0 23.64145,23.64145 23.641373,23.641373 0 0 0 13.71027,-4.43022 28.261703,28.261703 0 0 1 -7.60057,-19.21123 28.261703,28.261703 0 0 1 7.60057,-19.21174 23.641373,23.641373 0 0 0 -13.71027,-4.429705 z" /></g><g
       id="g3"
       inkscape:label="left"
       transform="translate(-32.09396)"
       style="display:inline;stroke:none;stroke-opacity:1;fill:#ffffff;fill-opacity:1"><path
         id="path2-3-4"
         style="display:inline;fill:#ffffff;stroke:none;stroke-width:0.23642;stroke-opacity:1;fill-opacity:1"
         inkscape:label="leftInline"
         d="m 177.12283,97.563553 a 23.641373,23.641373 0 0 0 -23.64145,23.641447 23.641373,23.641373 0 0 0 23.64145,23.64145 23.641373,23.641373 0 0 0 13.60847,-4.362 28.261703,28.261703 0 0 1 -7.65948,-19.27945 28.261703,28.261703 0 0 1 7.65948,-19.27944 23.641373,23.641373 0 0 0 -13.60847,-4.362007 z" /></g><g
       id="g4"
       inkscape:label="right"
       transform="translate(36.488421)"
       style="stroke:none;stroke-opacity:1;fill:#ffffff;fill-opacity:1"><circle
         style="display:inline;fill:#ffffff;stroke:none;stroke-width:0.23642;stroke-opacity:1;fill-opacity:1"
         id="path2-3-6"
         cx="177.12292"
         cy="121.2049"
         r="23.641373"
         inkscape:label="rightInline" /></g></g></svg>
