<?xml version="1.0" encoding="UTF-8" standalone="no"?>
<!-- Created with Inkscape (http://www.inkscape.org/) -->

<svg
   width="1024"
   height="1024"
   viewBox="0 0 270.93333 270.93333"
   version="1.1"
   id="svg1"
   inkscape:version="1.4.2 (ebf0e940, 2025-05-08)"
   sodipodi:docname="2_default_text_2.svg"
   xml:space="preserve"
   xmlns:inkscape="http://www.inkscape.org/namespaces/inkscape"
   xmlns:sodipodi="http://sodipodi.sourceforge.net/DTD/sodipodi-0.dtd"
   xmlns="http://www.w3.org/2000/svg"
   xmlns:svg="http://www.w3.org/2000/svg"><sodipodi:namedview
     id="namedview1"
     pagecolor="#ffffff"
     bordercolor="#000000"
     borderopacity="0.25"
     inkscape:showpageshadow="2"
     inkscape:pageopacity="0.0"
     inkscape:pagecheckerboard="0"
     inkscape:deskcolor="#d1d1d1"
     inkscape:document-units="px"
     inkscape:zoom="0.27121712"
     inkscape:cx="46.088537"
     inkscape:cy="418.48391"
     inkscape:window-width="1456"
     inkscape:window-height="796"
     inkscape:window-x="0"
     inkscape:window-y="38"
     inkscape:window-maximized="0"
     inkscape:current-layer="layer3"
     showgrid="true"
     showguides="true"><inkscape:grid
       id="grid1"
       units="px"
       originx="135.46667"
       originy="135.46667"
       spacingx="0.26458333"
       spacingy="0.26458333"
       empcolor="#0099e5"
       empopacity="0.30196078"
       color="#0099e5"
       opacity="0.14901961"
       empspacing="50"
       enabled="true"
       visible="true" /></sodipodi:namedview><defs
     id="defs1" /><g
     inkscape:groupmode="layer"
     id="layer3"
     inkscape:label="2_count"
     style="fill:#ffffff;fill-opacity:1;stroke:#000000;stroke-opacity:1"><path
       style="font-weight:800;font-size:50.2567px;line-height:0px;font-family:'SF Pro Text';-inkscape-font-specification:'SF Pro Text, Ultra-Bold';font-variation-settings:'wght' 100;stroke-width:0.261755;stroke:none;stroke-opacity:1;fill:#ffffff;fill-opacity:1"
       d="m 80.890253,193.24825 c 7.4109,0 11.950689,-3.99992 12.539635,-10.47832 v -0.0736 h -7.926227 l -0.04908,0.0491 c -0.41717,2.60118 -1.914074,3.90176 -4.51525,3.90176 -3.361899,0 -5.030578,-2.55209 -5.030578,-7.70537 v -0.0491 c 0,-5.10419 1.64414,-7.63175 5.030578,-7.63175 2.650255,0 4.171698,1.4969 4.539789,4.12262 l 0.02454,0.0491 7.926227,-0.0245 0.02454,-0.0245 c -0.539867,-6.7238 -5.030578,-10.72372 -12.564175,-10.72372 -9.005961,0 -13.815684,4.9815 -13.815684,14.23285 v 0.0491 c 0,9.30044 4.809723,14.30647 13.815684,14.30647 z m 28.097617,0 c 8.76057,0 13.91384,-5.30051 13.91384,-14.28193 v -0.0491 c 0,-8.85872 -5.27597,-14.25739 -13.91384,-14.25739 -8.58879,0 -13.913841,5.44775 -13.913841,14.25739 v 0.0491 c 0,8.95688 5.177811,14.28193 13.913841,14.28193 z m 0,-6.6011 c -3.19012,0 -5.00604,-2.82203 -5.00604,-7.68083 v -0.0491 c 0,-4.7361 1.865,-7.65629 5.00604,-7.65629 3.14104,0 5.00604,2.92019 5.00604,7.65629 v 0.0491 c 0,4.83426 -1.81592,7.68083 -5.00604,7.68083 z m 26.01177,6.6011 c 3.85269,0 6.65018,-1.91407 7.82807,-4.90788 h 0.46625 v 4.26986 h 8.68695 v -27.31236 h -8.68695 v 15.60706 c 0,3.11651 -1.6196,5.25144 -4.56433,5.25144 -2.94473,0 -4.22078,-1.84046 -4.22078,-5.15328 v -15.70522 h -8.68695 v 17.64383 c 0,6.55203 3.11651,10.30655 9.17774,10.30655 z m 21.49652,-0.63802 h 8.68694 v -15.60706 c 0,-3.14104 1.66868,-5.27597 4.49072,-5.27597 2.94472,0 4.29439,1.86499 4.29439,5.17781 v 15.70522 h 8.68695 V 174.9664 c 0,-6.55202 -3.16558,-10.30655 -9.22682,-10.30655 -3.85268,0 -6.6011,1.91407 -7.77899,4.90788 h -0.46625 v -4.26986 h -8.68694 z m 42.6004,0.0491 c 1.64414,0 3.2392,-0.14724 4.14716,-0.34355 v -6.20847 c -0.63803,0.0736 -1.1779,0.0982 -2.18401,0.0982 -2.25763,0 -3.28828,-0.98158 -3.28828,-3.04289 v -11.48444 h 5.47229 v -6.38025 h -5.47229 v -6.25754 h -8.71149 v 6.25754 h -4.1717 v 6.38025 h 4.1717 v 13.44759 c 0,5.34959 2.84657,7.5336 10.03662,7.5336 z"
       id="text6"
       aria-label="count&#10;" /></g></svg>
